<svg aria-hidden="true" style="position: absolute; width: 0; height: 0; overflow: hidden;" version="1.1" xmlns="http://www.w3.org/2000/svg" xmlns:xlink="http://www.w3.org/1999/xlink">
<defs>
<symbol id="icon-Eye" viewBox="0 0 32 32">
<path stroke-linejoin="round" stroke-linecap="round" stroke-miterlimit="4" stroke-width="2.2069" d="M1.333 16c0 0 5.333-10.667 14.667-10.667s14.667 10.667 14.667 10.667-5.333 10.667-14.667 10.667c-9.333 0-14.667-10.667-14.667-10.667z"></path>
<path stroke-linejoin="round" stroke-linecap="round" stroke-miterlimit="4" stroke-width="2.2069" d="M16 20c2.209 0 4-1.791 4-4s-1.791-4-4-4c-2.209 0-4 1.791-4 4s1.791 4 4 4z"></path>
</symbol>
<symbol id="icon-magnifier" viewBox="0 0 32 32">
<path d="M29.511 32l-11.2-11.2c-0.889 0.711-1.911 1.274-3.067 1.689s-2.385 0.622-3.689 0.622c-3.23 0-5.963-1.119-8.2-3.356s-3.356-4.97-3.356-8.2 1.119-5.963 3.356-8.2c2.237-2.237 4.97-3.356 8.2-3.356s5.963 1.119 8.2 3.356c2.237 2.237 3.356 4.97 3.356 8.2 0 1.304-0.207 2.533-0.622 3.689s-0.978 2.178-1.689 3.067l11.2 11.2-2.489 2.489zM11.556 19.556c2.222 0 4.111-0.778 5.667-2.333s2.333-3.444 2.333-5.667c0-2.222-0.778-4.111-2.333-5.667s-3.444-2.333-5.667-2.333c-2.222 0-4.111 0.778-5.667 2.333s-2.333 3.444-2.333 5.667c0 2.222 0.778 4.111 2.333 5.667s3.444 2.333 5.667 2.333z"></path>
</symbol>
<symbol id="icon-User" viewBox="0 0 32 32">
<path stroke-linejoin="round" stroke-linecap="round" stroke-miterlimit="4" stroke-width="2.2069" d="M26.667 28v-2.667c0-1.415-0.562-2.771-1.562-3.771s-2.357-1.562-3.771-1.562h-10.667c-1.415 0-2.771 0.562-3.771 1.562s-1.562 2.357-1.562 3.771v2.667M21.333 9.333c0 2.946-2.388 5.333-5.333 5.333s-5.333-2.388-5.333-5.333c0-2.946 2.388-5.333 5.333-5.333s5.333 2.388 5.333 5.333z"></path>
</symbol>
</defs>
</svg>