<svg aria-hidden="true" style="position: absolute; width: 0; height: 0; overflow: hidden;" version="1.1" xmlns="http://www.w3.org/2000/svg" xmlns:xlink="http://www.w3.org/1999/xlink">
<defs>

<symbol id="icon-Eye" viewBox="0 0 32 32">
<path stroke-linejoin="round" stroke-linecap="round" stroke-miterlimit="4" stroke-width="2.2069" d="M1.333 16c0 0 5.333-10.667 14.667-10.667s14.667 10.667 14.667 10.667-5.333 10.667-14.667 10.667c-9.333 0-14.667-10.667-14.667-10.667z"></path>
<path stroke-linejoin="round" stroke-linecap="round" stroke-miterlimit="4" stroke-width="2.2069" d="M16 20c2.209 0 4-1.791 4-4s-1.791-4-4-4c-2.209 0-4 1.791-4 4s1.791 4 4 4z"></path>
</symbol>

<symbol id="icon-magnifier" viewBox="0 0 32 32">
<path d="M26.133 28l-8.4-8.4c-0.667 0.533-1.433 0.956-2.3 1.267s-1.789 0.467-2.767 0.467c-2.422 0-4.472-0.839-6.15-2.517s-2.517-3.728-2.517-6.15c0-2.422 0.839-4.472 2.517-6.15s3.728-2.517 6.15-2.517c2.422 0 4.472 0.839 6.15 2.517s2.517 3.728 2.517 6.15c0 0.978-0.156 1.9-0.467 2.767s-0.733 1.633-1.267 2.3l8.4 8.4-1.867 1.867zM12.667 18.667c1.667 0 3.083-0.583 4.25-1.75s1.75-2.583 1.75-4.25c0-1.667-0.583-3.083-1.75-4.25s-2.583-1.75-4.25-1.75c-1.667 0-3.083 0.583-4.25 1.75s-1.75 2.583-1.75 4.25c0 1.667 0.583 3.083 1.75 4.25s2.583 1.75 4.25 1.75z"></path>
</symbol>

<symbol id="icon-User" viewBox="0 0 32 32">
<path stroke-linejoin="round" stroke-linecap="round" stroke-miterlimit="4" stroke-width="2.2069" d="M26.667 28v-2.667c0-1.415-0.562-2.771-1.562-3.771s-2.357-1.562-3.771-1.562h-10.667c-1.415 0-2.771 0.562-3.771 1.562s-1.562 2.357-1.562 3.771v2.667M21.333 9.333c0 2.946-2.388 5.333-5.333 5.333s-5.333-2.388-5.333-5.333c0-2.946 2.388-5.333 5.333-5.333s5.333 2.388 5.333 5.333z"></path>
</symbol>

<symbol id="icon-menu-toggle" viewBox="0 0 32 32">
<path fill="#000" style="fill: var(--color1, #000)" opacity="0.2" d="M3.2 0h25.6c1.767 0 3.2 1.433 3.2 3.2v25.6c0 1.767-1.433 3.2-3.2 3.2h-25.6c-1.767 0-3.2-1.433-3.2-3.2v-25.6c0-1.767 1.433-3.2 3.2-3.2z"></path>
<path fill="#fff" style="fill: var(--color2, #fff)" d="M6.4 7.2h19.2v1.6h-19.2v-1.6z"></path>
<path fill="#fff" style="fill: var(--color2, #fff)" d="M6.4 15.2h19.2v1.6h-19.2v-1.6z"></path>
<path fill="#fff" style="fill: var(--color2, #fff)" d="M6.4 23.2h19.2v1.6h-19.2v-1.6z"></path>
</symbol>


<symbol id="icon-menu-close" viewBox="0 0 32 32">
<path fill="#000" style="fill: var(--color1, #000)" opacity="0.2" d="M3.2 0h25.6c1.767 0 3.2 1.433 3.2 3.2v25.6c0 1.767-1.433 3.2-3.2 3.2h-25.6c-1.767 0-3.2-1.433-3.2-3.2v-25.6c0-1.767 1.433-3.2 3.2-3.2z"></path>
<path fill="#fff" style="fill: var(--color2, #fff)" d="M8.646 22.223l13.576-13.576 1.131 1.131-13.576 13.576-1.131-1.131z"></path>
<path fill="#fff" style="fill: var(--color2, #fff)" d="M9.778 8.646l13.576 13.576-1.131 1.131-13.576-13.576 1.131-1.131z"></path>
</symbol>


<symbol id="icon-instagram" viewBox="0 0 32 32">
    <path d="M31.969 9.408c-.075-1.7-.35-2.869-.744-3.882a7.803 7.803 0 0 0-1.85-2.838A7.867 7.867 0 0 0 26.543.844C25.524.45 24.361.175 22.661.1 20.948.019 20.404 0 16.06 0s-4.888.019-6.595.094c-1.7.075-2.869.35-3.882.744a7.803 7.803 0 0 0-2.838 1.85A7.867 7.867 0 0 0 .901 5.52C.507 6.539.232 7.702.157 9.402c-.081 1.713-.1 2.257-.1 6.601s.019 4.888.094 6.595c.075 1.7.35 2.869.744 3.882a7.895 7.895 0 0 0 1.85 2.838 7.867 7.867 0 0 0 2.832 1.844c1.019.394 2.182.669 3.882.744 1.706.075 2.25.094 6.595.094s4.888-.019 6.595-.094c1.7-.075 2.869-.35 3.882-.744a8.184 8.184 0 0 0 4.682-4.682c.394-1.019.669-2.182.744-3.882.075-1.707.094-2.25.094-6.595s-.006-4.888-.081-6.595zm-2.882 13.065c-.069 1.563-.331 2.407-.55 2.969a5.307 5.307 0 0 1-3.038 3.038c-.563.219-1.413.481-2.969.55-1.688.075-2.194.094-6.464.094s-4.782-.019-6.464-.094c-1.563-.069-2.407-.331-2.969-.55a4.926 4.926 0 0 1-1.838-1.194 4.974 4.974 0 0 1-1.194-1.838c-.219-.563-.481-1.413-.55-2.969-.075-1.688-.094-2.194-.094-6.464s.019-4.782.094-6.464c.069-1.563.331-2.407.55-2.969a4.868 4.868 0 0 1 1.2-1.838A4.974 4.974 0 0 1 6.639 3.55c.563-.219 1.413-.481 2.969-.55 1.688-.075 2.194-.094 6.464-.094 4.276 0 4.782.019 6.464.094 1.563.069 2.407.331 2.969.55a4.914 4.914 0 0 1 1.838 1.194 4.974 4.974 0 0 1 1.194 1.838c.219.563.481 1.413.55 2.969.075 1.688.094 2.194.094 6.464s-.019 4.77-.094 6.458z"/>
    <path d="M16.059 7.783c-4.538 0-8.22 3.682-8.22 8.22s3.682 8.22 8.22 8.22 8.22-3.682 8.22-8.22-3.682-8.22-8.22-8.22zm0 13.552a5.333 5.333 0 0 1 0-10.664 5.333 5.333 0 0 1 0 10.664zM26.524 7.458a1.919 1.919 0 1 1-3.838 0 1.919 1.919 0 0 1 3.838 0z"/>
</symbol>

<symbol id="icon-twitter" viewBox="0 0 32 32">
    <path d="M32 6.078c-1.19.522-2.458.868-3.78 1.036a6.523 6.523 0 0 0 2.886-3.626 13.11 13.11 0 0 1-4.16 1.588A6.574 6.574 0 0 0 22.154 3c-3.632 0-6.556 2.948-6.556 6.562 0 .52.044 1.02.152 1.496-5.454-.266-10.28-2.88-13.522-6.862a6.605 6.605 0 0 0-.898 3.316 6.57 6.57 0 0 0 2.914 5.452 6.479 6.479 0 0 1-2.964-.808v.072c0 3.188 2.274 5.836 5.256 6.446a6.548 6.548 0 0 1-1.72.216 5.8 5.8 0 0 1-1.242-.112c.85 2.598 3.262 4.508 6.13 4.57a13.182 13.182 0 0 1-8.134 2.798c-.538 0-1.054-.024-1.57-.09A18.469 18.469 0 0 0 10.064 29c12.072 0 18.672-10 18.672-18.668 0-.29-.01-.57-.024-.848A13.087 13.087 0 0 0 32 6.078z"/>
</symbol>

<symbol id="icon-facebook" viewBox="0 0 32 32">
  <path d="M21.329 5.313h2.921V.225C23.746.156 22.013 0 19.994 0c-4.212 0-7.097 2.649-7.097 7.519V12H8.249v5.688h4.648V32h5.699V17.689h4.46l.708-5.688h-5.169V8.082c.001-1.644.444-2.769 2.735-2.769z"/>
</symbol>

<symbol id="icon-linkedin" viewBox="0 0 32 32">
  <path d="M31.992 32v-.001H32V20.263c0-5.741-1.236-10.164-7.948-10.164-3.227 0-5.392 1.771-6.276 3.449h-.093v-2.913h-6.364v21.364h6.627V21.42c0-2.785.528-5.479 3.977-5.479 3.399 0 3.449 3.179 3.449 5.657v10.401h6.62zM.528 10.636h6.635V32H.528V10.636zM3.843 0C1.722 0 0 1.721 0 3.843s1.721 3.879 3.843 3.879c2.121 0 3.843-1.757 3.843-3.879A3.846 3.846 0 0 0 3.843 0z"/>
</symbol>

<symbol id="icon-vector" viewBox="0 0 48 32">
  <path d="M24 32l-24-27.138 4.3-4.862 19.7 22.389 19.7-22.276 4.3 4.862-24 27.025z"></path>
</symbol>

<symbol id="icon-star" viewBox="0 0 32 32">
<path d="M7.767 29.333l2.167-9.367-7.267-6.3 9.6-0.833 3.733-8.833 3.733 8.833 9.6 0.833-7.267 6.3 2.167 9.367-8.233-4.967-8.233 4.967z"></path>
</symbol>
<symbol id="icon-eye" viewBox="0 0 32 32">
<path d="M16 6c-6.979 0-13.028 4.064-16 10 2.972 5.936 9.021 10 16 10s13.027-4.064 16-10c-2.972-5.936-9.021-10-16-10zM23.889 11.303c1.88 1.199 3.473 2.805 4.67 4.697-1.197 1.891-2.79 3.498-4.67 4.697-2.362 1.507-5.090 2.303-7.889 2.303s-5.527-0.796-7.889-2.303c-1.88-1.199-3.473-2.805-4.67-4.697 1.197-1.891 2.79-3.498 4.67-4.697 0.122-0.078 0.246-0.154 0.371-0.228-0.311 0.854-0.482 1.776-0.482 2.737 0 4.418 3.582 8 8 8s8-3.582 8-8c0-0.962-0.17-1.883-0.482-2.737 0.124 0.074 0.248 0.15 0.371 0.228v0zM16 13c0 1.657-1.343 3-3 3s-3-1.343-3-3 1.343-3 3-3 3 1.343 3 3z"></path>
</symbol>


<symbol id="icon-left-circle" viewBox="0 0 32 32">
<path stroke-linejoin="round" stroke-linecap="round" stroke-miterlimit="4" stroke-width="1.8824" d="M16 10.666l-5.333 5.333M10.667 16l5.333 5.333M10.667 16h10.667M29.333 16c0 7.364-5.97 13.333-13.333 13.333s-13.333-5.97-13.333-13.333c0-7.364 5.97-13.333 13.333-13.333s13.333 5.97 13.333 13.333z"></path>
</symbol>

<symbol id="icon-right-circle" viewBox="0 0 32 32">
<path stroke-linejoin="round" stroke-linecap="round" stroke-miterlimit="4" stroke-width="1.8286" d="M16 21.334l5.333-5.333M21.333 16l-5.333-5.333M21.333 16h-10.667M29.333 16c0 7.364-5.97 13.333-13.333 13.333s-13.333-5.97-13.333-13.333c0-7.364 5.97-13.333 13.333-13.333s13.333 5.97 13.333 13.333z"></path>
</symbol>

<symbol id="icon-up" viewBox="0 0 32 32">
<path fill="none" stroke="#fff" style="stroke: var(--color1, #fff)" stroke-linejoin="round" stroke-linecap="round" stroke-miterlimit="4" stroke-width="5.12" d="M24 20l-8-8-8 8"></path>
</symbol>

<symbol id="icon-settings" viewBox="0 0 32 32">
<path d="M30.391 12.68l-3.064-0.614c-0.154-0.443-0.336-0.873-0.537-1.289l1.736-2.604c0.529-0.793 0.424-1.85-0.25-2.523l-1.924-1.924c-0.387-0.387-0.898-0.586-1.416-0.586-0.383 0-0.77 0.11-1.107 0.336l-2.604 1.735c-0.418-0.202-0.848-0.382-1.291-0.536l-0.614-3.065c-0.186-0.936-1.008-1.608-1.961-1.608h-2.72c-0.953 0-1.774 0.673-1.961 1.608l-0.614 3.065c-0.443 0.154-0.873 0.335-1.289 0.536l-2.603-1.735c-0.339-0.226-0.725-0.336-1.109-0.336-0.517 0-1.028 0.199-1.415 0.586l-1.923 1.924c-0.674 0.674-0.779 1.73-0.25 2.523l1.735 2.604c-0.202 0.417-0.382 0.847-0.536 1.29l-3.066 0.613c-0.935 0.187-1.608 1.008-1.608 1.961v2.72c0 0.953 0.673 1.775 1.608 1.961l3.065 0.615c0.154 0.443 0.335 0.873 0.536 1.289l-1.734 2.604c-0.529 0.793-0.424 1.85 0.25 2.523l1.924 1.924c0.387 0.387 0.898 0.586 1.415 0.586 0.384 0 0.771-0.111 1.108-0.336l2.604-1.736c0.417 0.203 0.847 0.383 1.29 0.537l0.613 3.064c0.187 0.936 1.008 1.609 1.961 1.609h2.72c0.953 0 1.775-0.674 1.961-1.609l0.615-3.064c0.443-0.154 0.873-0.336 1.289-0.537l2.604 1.736c0.338 0.225 0.725 0.336 1.107 0.336 0.518 0 1.029-0.199 1.416-0.586l1.924-1.924c0.674-0.674 0.779-1.73 0.25-2.523l-1.736-2.604c0.203-0.418 0.383-0.848 0.537-1.291l3.064-0.613c0.935-0.185 1.609-1.008 1.609-1.961v-2.72c0-0.953-0.674-1.774-1.609-1.961zM26.934 17.975c-0.695 0.139-1.264 0.635-1.496 1.305-0.129 0.369-0.279 0.727-0.447 1.074-0.311 0.639-0.258 1.393 0.135 1.982l1.736 2.604-1.924 1.924-2.604-1.736c-0.334-0.223-0.721-0.336-1.109-0.336-0.297 0-0.596 0.066-0.871 0.199-0.348 0.168-0.705 0.32-1.076 0.449-0.668 0.232-1.164 0.801-1.303 1.496l-0.615 3.066h-2.72l-0.613-3.066c-0.139-0.695-0.635-1.264-1.304-1.496-0.369-0.129-0.728-0.279-1.075-0.447-0.276-0.135-0.574-0.201-0.872-0.201-0.389 0-0.775 0.113-1.109 0.336l-2.604 1.736-1.924-1.924 1.735-2.604c0.393-0.59 0.444-1.344 0.137-1.98-0.168-0.348-0.319-0.705-0.448-1.076-0.232-0.668-0.802-1.164-1.496-1.303l-3.065-0.615-0.002-2.721 3.066-0.613c0.694-0.139 1.264-0.635 1.496-1.304 0.129-0.369 0.278-0.728 0.447-1.075 0.31-0.638 0.258-1.392-0.136-1.981l-1.734-2.604 1.923-1.924 2.604 1.735c0.334 0.223 0.721 0.336 1.109 0.336 0.297 0 0.595-0.066 0.871-0.199 0.347-0.168 0.705-0.319 1.075-0.448 0.669-0.232 1.165-0.802 1.304-1.496l0.614-3.065 2.72-0.001 0.613 3.066c0.139 0.694 0.635 1.264 1.305 1.496 0.369 0.129 0.727 0.278 1.074 0.447 0.277 0.134 0.574 0.2 0.873 0.2 0.389 0 0.775-0.113 1.109-0.336l2.604-1.735 1.924 1.924-1.736 2.604c-0.393 0.59-0.443 1.343-0.137 1.98 0.168 0.347 0.32 0.705 0.449 1.075 0.232 0.669 0.801 1.165 1.496 1.304l3.064 0.614 0.003 2.72-3.066 0.614zM16 9.001c-3.865 0-7 3.135-7 7 0 3.866 3.135 7 7 7s7-3.135 7-7c0-3.865-3.135-7-7-7zM16 22.127c-3.382 0-6.125-2.744-6.125-6.125s2.743-6.125 6.125-6.125c3.381 0 6.125 2.743 6.125 6.125 0 3.381-2.744 6.125-6.125 6.125zM16 12.001c-2.21 0-4 1.79-4 4s1.79 4 4 4c2.209 0 4-1.791 4-4s-1.791-4-4-4zM16 19.002c-1.656 0-3-1.344-3-3s1.344-3 3-3 3 1.344 3 3c0 1.656-1.344 3-3 3z"></path>
</symbol>


</defs>
</svg>